<mxfile host="www.draw.io" modified="2019-12-14T09:30:57.316Z" agent="Mozilla/5.0 (Windows NT 10.0; Win64; x64) AppleWebKit/537.36 (KHTML, like Gecko) Chrome/78.0.3904.108 Safari/537.36" etag="DOf898H6-iJPB3s3dLSK" version="12.4.1" type="github" pages="1">
  <diagram id="Wno_nARaziaIXvDMPjIV" name="Page-1">
    <mxGraphModel dx="1736" dy="964" grid="1" gridSize="10" guides="1" tooltips="1" connect="1" arrows="1" fold="1" page="1" pageScale="1" pageWidth="827" pageHeight="1169" math="0" shadow="0">
      <root>
        <mxCell id="0"/>
        <mxCell id="1" parent="0"/>
        <mxCell id="zHzhj61Oy8PN5UG7wRmm-1" value="" style="edgeStyle=orthogonalEdgeStyle;rounded=0;orthogonalLoop=1;jettySize=auto;html=1;" edge="1" parent="1" source="zHzhj61Oy8PN5UG7wRmm-2" target="zHzhj61Oy8PN5UG7wRmm-4">
          <mxGeometry relative="1" as="geometry"/>
        </mxCell>
        <mxCell id="zHzhj61Oy8PN5UG7wRmm-2" value="makeAShell(container)" style="shape=parallelogram;perimeter=parallelogramPerimeter;whiteSpace=wrap;html=1;" vertex="1" parent="1">
          <mxGeometry x="1800" y="40" width="180" height="60" as="geometry"/>
        </mxCell>
        <mxCell id="zHzhj61Oy8PN5UG7wRmm-3" value="" style="edgeStyle=orthogonalEdgeStyle;rounded=0;orthogonalLoop=1;jettySize=auto;html=1;entryX=0.5;entryY=0;entryDx=0;entryDy=0;" edge="1" parent="1" source="zHzhj61Oy8PN5UG7wRmm-4" target="zHzhj61Oy8PN5UG7wRmm-8">
          <mxGeometry relative="1" as="geometry">
            <mxPoint x="1890" y="320" as="targetPoint"/>
          </mxGeometry>
        </mxCell>
        <mxCell id="zHzhj61Oy8PN5UG7wRmm-4" value="makeAPrompt (container, prompt = &#39; &#39;, parentCommand = &#39; &#39;)" style="shape=parallelogram;perimeter=parallelogramPerimeter;whiteSpace=wrap;html=1;" vertex="1" parent="1">
          <mxGeometry x="1675" y="180" width="430" height="60" as="geometry"/>
        </mxCell>
        <mxCell id="zHzhj61Oy8PN5UG7wRmm-5" value="makeAShell(#shell-c)" style="rounded=0;whiteSpace=wrap;html=1;fillColor=#ffe6cc;strokeColor=#d79b00;" vertex="1" parent="1">
          <mxGeometry x="2000" y="40" width="120" height="60" as="geometry"/>
        </mxCell>
        <mxCell id="zHzhj61Oy8PN5UG7wRmm-6" value="&lt;span style=&quot;white-space: normal&quot;&gt;makeAPrompt (#shell-c)&lt;/span&gt;" style="rounded=0;whiteSpace=wrap;html=1;fillColor=#ffe6cc;strokeColor=#d79b00;" vertex="1" parent="1">
          <mxGeometry x="2110" y="180" width="120" height="60" as="geometry"/>
        </mxCell>
        <mxCell id="zHzhj61Oy8PN5UG7wRmm-7" value="" style="edgeStyle=orthogonalEdgeStyle;rounded=0;orthogonalLoop=1;jettySize=auto;html=1;entryX=0.5;entryY=0;entryDx=0;entryDy=0;" edge="1" parent="1" source="zHzhj61Oy8PN5UG7wRmm-8" target="zHzhj61Oy8PN5UG7wRmm-11">
          <mxGeometry relative="1" as="geometry">
            <mxPoint x="1890" y="470" as="targetPoint"/>
          </mxGeometry>
        </mxCell>
        <mxCell id="zHzhj61Oy8PN5UG7wRmm-8" value="let prompt_c;" style="rounded=0;whiteSpace=wrap;html=1;" vertex="1" parent="1">
          <mxGeometry x="1830" y="320" width="120" height="60" as="geometry"/>
        </mxCell>
        <mxCell id="zHzhj61Oy8PN5UG7wRmm-9" style="edgeStyle=orthogonalEdgeStyle;rounded=0;orthogonalLoop=1;jettySize=auto;html=1;exitX=0;exitY=0.5;exitDx=0;exitDy=0;entryX=0.5;entryY=0;entryDx=0;entryDy=0;" edge="1" parent="1" source="zHzhj61Oy8PN5UG7wRmm-11" target="zHzhj61Oy8PN5UG7wRmm-14">
          <mxGeometry relative="1" as="geometry">
            <mxPoint x="1620" y="580" as="targetPoint"/>
          </mxGeometry>
        </mxCell>
        <mxCell id="zHzhj61Oy8PN5UG7wRmm-10" style="edgeStyle=orthogonalEdgeStyle;rounded=0;orthogonalLoop=1;jettySize=auto;html=1;exitX=1;exitY=0.5;exitDx=0;exitDy=0;entryX=0.5;entryY=0;entryDx=0;entryDy=0;" edge="1" parent="1" source="zHzhj61Oy8PN5UG7wRmm-11" target="zHzhj61Oy8PN5UG7wRmm-17">
          <mxGeometry relative="1" as="geometry">
            <mxPoint x="2140" y="580" as="targetPoint"/>
          </mxGeometry>
        </mxCell>
        <mxCell id="zHzhj61Oy8PN5UG7wRmm-11" value="prompt_c" style="rhombus;whiteSpace=wrap;html=1;" vertex="1" parent="1">
          <mxGeometry x="1850" y="460" width="80" height="80" as="geometry"/>
        </mxCell>
        <mxCell id="zHzhj61Oy8PN5UG7wRmm-12" value="prompt === &#39; &#39;" style="text;html=1;align=center;verticalAlign=middle;resizable=0;points=[];;autosize=1;" vertex="1" parent="1">
          <mxGeometry x="1710" y="480" width="90" height="20" as="geometry"/>
        </mxCell>
        <mxCell id="zHzhj61Oy8PN5UG7wRmm-13" value="else" style="text;html=1;align=center;verticalAlign=middle;resizable=0;points=[];;autosize=1;" vertex="1" parent="1">
          <mxGeometry x="1995" y="480" width="40" height="20" as="geometry"/>
        </mxCell>
        <mxCell id="zHzhj61Oy8PN5UG7wRmm-14" value="$(&#39;&amp;lt;div&amp;gt;&amp;lt;b&amp;gt;&#39;+shellObj[&#39;prompt-sign&#39;]+&#39;&amp;lt;/b&amp;gt;&amp;lt;pre&amp;gt; &amp;lt;/pre&amp;gt;&amp;lt;/div&amp;gt;&#39;).appendTo(container);" style="rounded=0;whiteSpace=wrap;html=1;" vertex="1" parent="1">
          <mxGeometry x="1420" y="595" width="460" height="40" as="geometry"/>
        </mxCell>
        <mxCell id="zHzhj61Oy8PN5UG7wRmm-15" style="edgeStyle=orthogonalEdgeStyle;rounded=0;orthogonalLoop=1;jettySize=auto;html=1;exitX=0.5;exitY=1;exitDx=0;exitDy=0;" edge="1" parent="1" source="zHzhj61Oy8PN5UG7wRmm-16">
          <mxGeometry relative="1" as="geometry">
            <mxPoint x="1900" y="900" as="targetPoint"/>
          </mxGeometry>
        </mxCell>
        <mxCell id="zHzhj61Oy8PN5UG7wRmm-16" value="&lt;span style=&quot;white-space: normal&quot;&gt;$(&#39;&amp;gt;&#39;).appendTo(#shell-c);&lt;/span&gt;" style="rounded=0;whiteSpace=wrap;html=1;fillColor=#ffe6cc;strokeColor=#d79b00;" vertex="1" parent="1">
          <mxGeometry x="1420" y="645" width="460" height="60" as="geometry"/>
        </mxCell>
        <mxCell id="zHzhj61Oy8PN5UG7wRmm-17" value="$(&#39;&amp;lt;div&amp;gt;&amp;lt;b&amp;gt;&#39;+prompt+&#39;&amp;lt;/b&amp;gt;&amp;lt;pre&amp;gt; &amp;lt;/pre&amp;gt;&amp;lt;/div&amp;gt;&#39;).appendTo(container);" style="rounded=0;whiteSpace=wrap;html=1;" vertex="1" parent="1">
          <mxGeometry x="1910" y="595" width="460" height="40" as="geometry"/>
        </mxCell>
        <mxCell id="zHzhj61Oy8PN5UG7wRmm-18" style="edgeStyle=orthogonalEdgeStyle;rounded=0;orthogonalLoop=1;jettySize=auto;html=1;exitX=0.5;exitY=1;exitDx=0;exitDy=0;" edge="1" parent="1" source="zHzhj61Oy8PN5UG7wRmm-19">
          <mxGeometry relative="1" as="geometry">
            <mxPoint x="1900" y="900" as="targetPoint"/>
          </mxGeometry>
        </mxCell>
        <mxCell id="zHzhj61Oy8PN5UG7wRmm-19" value="&lt;span style=&quot;white-space: normal&quot;&gt;$(&#39;color:&#39;).appendTo(#shell-c);&lt;/span&gt;" style="rounded=0;whiteSpace=wrap;html=1;fillColor=#ffe6cc;strokeColor=#d79b00;" vertex="1" parent="1">
          <mxGeometry x="1910" y="645" width="460" height="60" as="geometry"/>
        </mxCell>
        <mxCell id="zHzhj61Oy8PN5UG7wRmm-20" value="" style="edgeStyle=orthogonalEdgeStyle;rounded=0;orthogonalLoop=1;jettySize=auto;html=1;entryX=0.5;entryY=0;entryDx=0;entryDy=0;" edge="1" parent="1" source="zHzhj61Oy8PN5UG7wRmm-21" target="zHzhj61Oy8PN5UG7wRmm-25">
          <mxGeometry relative="1" as="geometry">
            <mxPoint x="1905" y="1040" as="targetPoint"/>
          </mxGeometry>
        </mxCell>
        <mxCell id="zHzhj61Oy8PN5UG7wRmm-21" value="let prompt_command = $(&#39;&amp;lt;div contenteditable=&quot;true&quot; class=&quot;prompt-command-class&quot;&amp;gt;&amp;lt;/div&amp;gt;&#39;).appendTo(prompt_c);" style="rounded=0;whiteSpace=wrap;html=1;" vertex="1" parent="1">
          <mxGeometry x="1560" y="900" width="690" height="60" as="geometry"/>
        </mxCell>
        <mxCell id="zHzhj61Oy8PN5UG7wRmm-22" style="edgeStyle=orthogonalEdgeStyle;rounded=0;orthogonalLoop=1;jettySize=auto;html=1;exitX=0;exitY=0.5;exitDx=0;exitDy=0;" edge="1" parent="1" source="zHzhj61Oy8PN5UG7wRmm-25">
          <mxGeometry relative="1" as="geometry">
            <mxPoint x="1520" y="1220" as="targetPoint"/>
          </mxGeometry>
        </mxCell>
        <mxCell id="zHzhj61Oy8PN5UG7wRmm-23" value="prompt !== &#39; &#39;&amp;nbsp; &amp;amp;&amp;amp; parentCommand !== &#39; &#39;" style="text;html=1;align=center;verticalAlign=middle;resizable=0;points=[];;labelBackgroundColor=#ffffff;" vertex="1" connectable="0" parent="zHzhj61Oy8PN5UG7wRmm-22">
          <mxGeometry x="-0.5835" y="1" relative="1" as="geometry">
            <mxPoint x="-64" y="-11" as="offset"/>
          </mxGeometry>
        </mxCell>
        <mxCell id="zHzhj61Oy8PN5UG7wRmm-24" style="edgeStyle=orthogonalEdgeStyle;rounded=0;orthogonalLoop=1;jettySize=auto;html=1;exitX=0.5;exitY=1;exitDx=0;exitDy=0;entryX=0.5;entryY=0;entryDx=0;entryDy=0;" edge="1" parent="1" source="zHzhj61Oy8PN5UG7wRmm-25" target="zHzhj61Oy8PN5UG7wRmm-29">
          <mxGeometry relative="1" as="geometry">
            <mxPoint x="1905" y="1280" as="targetPoint"/>
          </mxGeometry>
        </mxCell>
        <mxCell id="zHzhj61Oy8PN5UG7wRmm-25" value="Enter command" style="rhombus;whiteSpace=wrap;html=1;" vertex="1" parent="1">
          <mxGeometry x="1865" y="1040" width="80" height="80" as="geometry"/>
        </mxCell>
        <mxCell id="zHzhj61Oy8PN5UG7wRmm-26" value="" style="rounded=0;whiteSpace=wrap;html=1;fillColor=#ffe6cc;strokeColor=#d79b00;" vertex="1" parent="1">
          <mxGeometry x="1590" y="1030" width="230" height="30" as="geometry"/>
        </mxCell>
        <mxCell id="zHzhj61Oy8PN5UG7wRmm-27" value="else" style="text;html=1;align=center;verticalAlign=middle;resizable=0;points=[];;autosize=1;" vertex="1" parent="1">
          <mxGeometry x="1870" y="1189" width="40" height="20" as="geometry"/>
        </mxCell>
        <mxCell id="zHzhj61Oy8PN5UG7wRmm-28" value="simple command" style="rounded=0;whiteSpace=wrap;html=1;fillColor=#ffe6cc;strokeColor=#d79b00;" vertex="1" parent="1">
          <mxGeometry x="1798" y="1168.5" width="75" height="61" as="geometry"/>
        </mxCell>
        <mxCell id="zHzhj61Oy8PN5UG7wRmm-29" value="makeAnAnswer(command, container);" style="shape=parallelogram;perimeter=parallelogramPerimeter;whiteSpace=wrap;html=1;" vertex="1" parent="1">
          <mxGeometry x="1767.5" y="1290" width="275" height="60" as="geometry"/>
        </mxCell>
        <mxCell id="zHzhj61Oy8PN5UG7wRmm-30" style="edgeStyle=orthogonalEdgeStyle;rounded=0;orthogonalLoop=1;jettySize=auto;html=1;exitX=0.5;exitY=1;exitDx=0;exitDy=0;entryX=0.5;entryY=0;entryDx=0;entryDy=0;" edge="1" parent="1" source="zHzhj61Oy8PN5UG7wRmm-31" target="zHzhj61Oy8PN5UG7wRmm-34">
          <mxGeometry relative="1" as="geometry"/>
        </mxCell>
        <mxCell id="zHzhj61Oy8PN5UG7wRmm-31" value="makeAnAnswer(command, container, parentCommand = false)" style="shape=parallelogram;perimeter=parallelogramPerimeter;whiteSpace=wrap;html=1;" vertex="1" parent="1">
          <mxGeometry x="110" y="40" width="450" height="60" as="geometry"/>
        </mxCell>
        <mxCell id="zHzhj61Oy8PN5UG7wRmm-32" style="edgeStyle=orthogonalEdgeStyle;rounded=0;orthogonalLoop=1;jettySize=auto;html=1;exitX=0;exitY=0.5;exitDx=0;exitDy=0;" edge="1" parent="1" source="zHzhj61Oy8PN5UG7wRmm-34">
          <mxGeometry relative="1" as="geometry">
            <mxPoint x="40" y="290" as="targetPoint"/>
          </mxGeometry>
        </mxCell>
        <mxCell id="zHzhj61Oy8PN5UG7wRmm-33" style="edgeStyle=orthogonalEdgeStyle;rounded=0;orthogonalLoop=1;jettySize=auto;html=1;exitX=1;exitY=0.5;exitDx=0;exitDy=0;entryX=0.5;entryY=0;entryDx=0;entryDy=0;" edge="1" parent="1" source="zHzhj61Oy8PN5UG7wRmm-34" target="zHzhj61Oy8PN5UG7wRmm-47">
          <mxGeometry relative="1" as="geometry"/>
        </mxCell>
        <mxCell id="zHzhj61Oy8PN5UG7wRmm-34" value="parentCommand" style="rhombus;whiteSpace=wrap;html=1;" vertex="1" parent="1">
          <mxGeometry x="281.5" y="150" width="107" height="100" as="geometry"/>
        </mxCell>
        <mxCell id="zHzhj61Oy8PN5UG7wRmm-35" value="!= false" style="text;html=1;align=center;verticalAlign=middle;resizable=0;points=[];;autosize=1;" vertex="1" parent="1">
          <mxGeometry x="145" y="180" width="50" height="20" as="geometry"/>
        </mxCell>
        <mxCell id="zHzhj61Oy8PN5UG7wRmm-36" value="it is time to run a several arg function" style="rounded=0;whiteSpace=wrap;html=1;fillColor=#ffe6cc;strokeColor=#d79b00;" vertex="1" parent="1">
          <mxGeometry x="110" y="200" width="120" height="30" as="geometry"/>
        </mxCell>
        <mxCell id="zHzhj61Oy8PN5UG7wRmm-37" style="edgeStyle=orthogonalEdgeStyle;rounded=0;orthogonalLoop=1;jettySize=auto;html=1;exitX=0;exitY=0.5;exitDx=0;exitDy=0;entryX=0.5;entryY=0;entryDx=0;entryDy=0;" edge="1" parent="1" source="zHzhj61Oy8PN5UG7wRmm-39" target="zHzhj61Oy8PN5UG7wRmm-44">
          <mxGeometry relative="1" as="geometry">
            <mxPoint x="591" y="435" as="targetPoint"/>
          </mxGeometry>
        </mxCell>
        <mxCell id="zHzhj61Oy8PN5UG7wRmm-38" style="edgeStyle=orthogonalEdgeStyle;rounded=0;orthogonalLoop=1;jettySize=auto;html=1;exitX=1;exitY=0.5;exitDx=0;exitDy=0;entryX=0.5;entryY=0;entryDx=0;entryDy=0;" edge="1" parent="1" source="zHzhj61Oy8PN5UG7wRmm-39" target="zHzhj61Oy8PN5UG7wRmm-43">
          <mxGeometry relative="1" as="geometry">
            <mxPoint x="1041" y="445" as="targetPoint"/>
          </mxGeometry>
        </mxCell>
        <mxCell id="zHzhj61Oy8PN5UG7wRmm-39" value="arg" style="rhombus;whiteSpace=wrap;html=1;" vertex="1" parent="1">
          <mxGeometry x="811" y="305" width="80" height="80" as="geometry"/>
        </mxCell>
        <mxCell id="zHzhj61Oy8PN5UG7wRmm-40" value="arg !== prompt" style="text;html=1;align=center;verticalAlign=middle;resizable=0;points=[];;autosize=1;" vertex="1" parent="1">
          <mxGeometry x="681" y="325" width="90" height="20" as="geometry"/>
        </mxCell>
        <mxCell id="zHzhj61Oy8PN5UG7wRmm-41" value="run a simple function" style="rounded=0;whiteSpace=wrap;html=1;fillColor=#ffe6cc;strokeColor=#d79b00;" vertex="1" parent="1">
          <mxGeometry x="666" y="345" width="120" height="30" as="geometry"/>
        </mxCell>
        <mxCell id="zHzhj61Oy8PN5UG7wRmm-42" value="arg == prompt" style="text;html=1;align=center;verticalAlign=middle;resizable=0;points=[];;autosize=1;" vertex="1" parent="1">
          <mxGeometry x="945" y="325" width="90" height="20" as="geometry"/>
        </mxCell>
        <mxCell id="zHzhj61Oy8PN5UG7wRmm-43" value="get all args with recalling the makeAPrompt()&lt;br&gt;and then run&amp;nbsp;makeAnAnswer(&#39;&#39;, shellObj[&#39;shell-container&#39;], counter2[1]);&lt;br&gt;so a several&amp;nbsp; arg function ran" style="rounded=0;whiteSpace=wrap;html=1;" vertex="1" parent="1">
          <mxGeometry x="891" y="430" width="390" height="110" as="geometry"/>
        </mxCell>
        <mxCell id="zHzhj61Oy8PN5UG7wRmm-44" value="showAnswer(eval(jsonVal)(arg), container)" style="rounded=0;whiteSpace=wrap;html=1;" vertex="1" parent="1">
          <mxGeometry x="458.5" y="445" width="255" height="60" as="geometry"/>
        </mxCell>
        <mxCell id="zHzhj61Oy8PN5UG7wRmm-45" value="run a several arg function" style="rounded=0;whiteSpace=wrap;html=1;fillColor=#ffe6cc;strokeColor=#d79b00;" vertex="1" parent="1">
          <mxGeometry x="920" y="345" width="140" height="30" as="geometry"/>
        </mxCell>
        <mxCell id="zHzhj61Oy8PN5UG7wRmm-46" style="edgeStyle=orthogonalEdgeStyle;rounded=0;orthogonalLoop=1;jettySize=auto;html=1;exitX=0.5;exitY=1;exitDx=0;exitDy=0;entryX=0.5;entryY=0;entryDx=0;entryDy=0;" edge="1" parent="1" source="zHzhj61Oy8PN5UG7wRmm-47" target="zHzhj61Oy8PN5UG7wRmm-56">
          <mxGeometry relative="1" as="geometry">
            <mxPoint x="870.2857142857142" y="820" as="targetPoint"/>
          </mxGeometry>
        </mxCell>
        <mxCell id="zHzhj61Oy8PN5UG7wRmm-47" value="" style="rounded=0;whiteSpace=wrap;html=1;fillColor=none;" vertex="1" parent="1">
          <mxGeometry x="450" y="290" width="840" height="310" as="geometry"/>
        </mxCell>
        <mxCell id="zHzhj61Oy8PN5UG7wRmm-48" value="try" style="text;html=1;align=center;verticalAlign=middle;resizable=0;points=[];;autosize=1;" vertex="1" parent="1">
          <mxGeometry x="870" y="230" width="30" height="20" as="geometry"/>
        </mxCell>
        <mxCell id="zHzhj61Oy8PN5UG7wRmm-49" value="catch" style="text;html=1;align=center;verticalAlign=middle;resizable=0;points=[];;autosize=1;" vertex="1" parent="1">
          <mxGeometry x="871" y="705" width="40" height="20" as="geometry"/>
        </mxCell>
        <mxCell id="zHzhj61Oy8PN5UG7wRmm-50" style="edgeStyle=orthogonalEdgeStyle;rounded=0;orthogonalLoop=1;jettySize=auto;html=1;exitX=0.5;exitY=1;exitDx=0;exitDy=0;entryX=0.5;entryY=0;entryDx=0;entryDy=0;" edge="1" parent="1" source="zHzhj61Oy8PN5UG7wRmm-51" target="zHzhj61Oy8PN5UG7wRmm-52">
          <mxGeometry relative="1" as="geometry"/>
        </mxCell>
        <mxCell id="zHzhj61Oy8PN5UG7wRmm-51" value="run a command-answer function" style="rounded=0;whiteSpace=wrap;html=1;" vertex="1" parent="1">
          <mxGeometry x="755" y="920" width="229" height="60" as="geometry"/>
        </mxCell>
        <mxCell id="zHzhj61Oy8PN5UG7wRmm-52" value="show this command doesn&#39;t exist error" style="rounded=0;whiteSpace=wrap;html=1;" vertex="1" parent="1">
          <mxGeometry x="755" y="1055" width="230" height="60" as="geometry"/>
        </mxCell>
        <mxCell id="zHzhj61Oy8PN5UG7wRmm-53" value="" style="endArrow=classic;html=1;entryX=0.5;entryY=0;entryDx=0;entryDy=0;" edge="1" parent="1" target="zHzhj61Oy8PN5UG7wRmm-51">
          <mxGeometry width="50" height="50" relative="1" as="geometry">
            <mxPoint x="870" y="870" as="sourcePoint"/>
            <mxPoint x="685" y="780" as="targetPoint"/>
          </mxGeometry>
        </mxCell>
        <mxCell id="zHzhj61Oy8PN5UG7wRmm-54" value="try" style="text;html=1;align=center;verticalAlign=middle;resizable=0;points=[];;autosize=1;" vertex="1" parent="1">
          <mxGeometry x="870" y="890" width="30" height="20" as="geometry"/>
        </mxCell>
        <mxCell id="zHzhj61Oy8PN5UG7wRmm-55" value="catch" style="text;html=1;align=center;verticalAlign=middle;resizable=0;points=[];;autosize=1;" vertex="1" parent="1">
          <mxGeometry x="869.5" y="1007.5" width="40" height="20" as="geometry"/>
        </mxCell>
        <mxCell id="zHzhj61Oy8PN5UG7wRmm-56" value="" style="rounded=0;whiteSpace=wrap;html=1;fillColor=none;" vertex="1" parent="1">
          <mxGeometry x="714" y="830" width="317" height="340" as="geometry"/>
        </mxCell>
      </root>
    </mxGraphModel>
  </diagram>
</mxfile>
